<svg xmlns="http://www.w3.org/2000/svg" style="display: none;">

    <!-- Icon 1 -->
    <symbol id="heart" viewBox="0 0 256 256">
        <path d="M178,32c-20.65,0-38.73,8.88-50,23.89C116.73,40.88,98.65,32,78,32A62.07,62.07,0,0,0,16,94c0,70,103.79,126.66,108.21,129a8,8,0,0,0,7.58,0C136.21,220.66,240,164,240,94A62.07,62.07,0,0,0,178,32ZM128,206.8C109.74,196.16,32,147.69,32,94A46.06,46.06,0,0,1,78,48c19.45,0,35.78,10.36,42.6,27a8,8,0,0,0,14.8,0c6.82-16.67,23.15-27,42.6-27a46.06,46.06,0,0,1,46,46C224,147.61,146.24,196.15,128,206.8Z"/>
    </symbol>

    <!-- Icon 2 -->
    <symbol id="star" viewBox="0 0 256 256">
    <path d="M234.5,114.38l-45.1,39.36,13.51,58.6a16,16,0,0,1-23.84,17.34l-51.11-31-51,31a16,16,0,0,1-23.84-17.34L66.61,153.8,21.5,114.38a16,16,0,0,1,9.11-28.06l59.46-5.15,23.21-55.36a15.95,15.95,0,0,1,29.44,0h0L166,81.17l59.44,5.15a16,16,0,0,1,9.11,28.06Z"/>
</symbol>


    <!-- Icon 3 -->
    <symbol id="leaf" viewBox="0 0 256 256">
        <path d="M223.45,40.07a8,8,0,0,0-7.52-7.52C139.8,28.08,78.82,51,52.82,94a87.09,87.09,0,0,0-12.76,49c.57,15.92,5.21,32,13.79,47.85l-19.51,19.5a8,8,0,0,0,11.32,11.32l19.5-19.51C81,210.73,97.09,215.37,113,215.94q1.67.06,3.33.06A86.93,86.93,0,0,0,162,203.18C205,177.18,227.93,116.21,223.45,40.07ZM153.75,189.5c-22.75,13.78-49.68,14-76.71,.77l88.63-88.62a8,8,0,0,0-11.32-11.32L65.73,179c-13.19-27-13-54,.77-76.71,22.09-36.47,74.6-56.44,141.31-54.06C210.2,114.89,190.22,167.41,153.75,189.5Z"/>
    </symbol>

    <!-- Icon 4 -->
    <symbol id="smile" viewBox="0 0 256 256">
        <path d="M128,24A104,104,0,1,0,232,128,104.11,104.11,0,0,0,128,24Zm0,192a88,88,0,1,1,88-88A88.1,88.1,0,0,1,128,216ZM80,108a12,12,0,1,1,12,12A12,12,0,0,1,80,108Zm96,0a12,12,0,1,1-12-12A12,12,0,0,1,176,108Zm-1.07,48c-10.29,17.79-27.4,28-46.93,28s-36.63-10.2-46.92-28a8,8,0,1,1,13.84-8c7.47,12.91,19.21,20,33.08,20s25.61-7.1,33.07-20a8,8,0,0,1,13.86,8Z"/>
    </symbol>

    <!-- Icon 5 -->
    <symbol id="gift" viewBox="0 0 256 256">
    <path d="M216,72H180.92c.39-.33.79-.65,1.17-1A29.53,29.53,0,0,0,192,49.57,32.62,32.62,0,0,0,158.44,16,29.53,29.53,0,0,0,137,25.91a54.94,54.94,0,0,0-9,14.48,54.94,54.94,0,0,0-9-14.48A29.53,29.53,0,0,0,97.56,16,32.62,32.62,0,0,0,64,49.57,29.53,29.53,0,0,0,73.91,71c.38.33.78.65,1.17,1H40A16,16,0,0,0,24,88v32a16,16,0,0,0,16,16v64a16,16,0,0,0,16,16H200a16,16,0,0,0,16-16V136a16,16,0,0,0,16-16V88A16,16,0,0,0,216,72ZM149,36.51a13.69,13.69,0,0,1,10-4.5h.49A16.62,16.62,0,0,1,176,49.08a13.69,13.69,0,0,1-4.5,10c-9.49,8.4-25.24,11.36-35,12.4C137.7,60.89,141,45.5,149,36.51Zm-64.09.36A16.63,16.63,0,0,1,96.59,32h.49a13.69,13.69,0,0,1,10,4.5c8.39,9.48,11.35,25.2,12.39,34.92-9.72-1-25.44-4-34.92-12.39a13.69,13.69,0,0,1-4.5-10A16.6,16.6,0,0,1,84.87,36.87ZM40,88h80v32H40Zm16,48h64v64H56Zm144,64H136V136h64Zm16-80H136V88h80v32Z"></path>
</symbol>

<!-- facebook -->
<symbol id="facebook" viewBox="0 0 512 512">
    <path d="M512 256C512 114.6 397.4 0 256 0S0 114.6 0 256C0 376 82.7 476.8 194.2 504.5V334.2H141.4V256h52.8V222.3c0-87.1 39.4-127.5 125-127.5c16.2 0 44.2 3.2 55.7 6.4V172c-6-.6-16.5-1-29.6-1c-42 0-58.2 15.9-58.2 57.2V256h83.6l-14.4 78.2H287V510.1C413.8 494.8 512 386.9 512 256h0z"/>
</symbol>

<!-- Instagram -->
<symbol id="instagram" viewBox="0 0 448 512">
    <path d="M224.1 141c-63.6 0-114.9 51.3-114.9 114.9s51.3 114.9 114.9 114.9S339 319.5 339 255.9 287.7 141 224.1 141zm0 189.6c-41.1 0-74.7-33.5-74.7-74.7s33.5-74.7 74.7-74.7 74.7 33.5 74.7 74.7-33.6 74.7-74.7 74.7zm146.4-194.3c0 14.9-12 26.8-26.8 26.8-14.9 0-26.8-12-26.8-26.8s12-26.8 26.8-26.8 26.8 12 26.8 26.8zm76.1 27.2c-1.7-35.9-9.9-67.7-36.2-93.9-26.2-26.2-58-34.4-93.9-36.2-37-2.1-147.9-2.1-184.9 0-35.8 1.7-67.6 9.9-93.9 36.1s-34.4 58-36.2 93.9c-2.1 37-2.1 147.9 0 184.9 1.7 35.9 9.9 67.7 36.2 93.9s58 34.4 93.9 36.2c37 2.1 147.9 2.1 184.9 0 35.9-1.7 67.7-9.9 93.9-36.2 26.2-26.2 34.4-58 36.2-93.9 2.1-37 2.1-147.8 0-184.8zM398.8 388c-7.8 19.6-22.9 34.7-42.6 42.6-29.5 11.7-99.5 9-132.1 9s-102.7 2.6-132.1-9c-19.6-7.8-34.7-22.9-42.6-42.6-11.7-29.5-9-99.5-9-132.1s-2.6-102.7 9-132.1c7.8-19.6 22.9-34.7 42.6-42.6 29.5-11.7 99.5-9 132.1-9s102.7-2.6 132.1 9c19.6 7.8 34.7 22.9 42.6 42.6 11.7 29.5 9 99.5 9 132.1s2.7 102.7-9 132.1z"/>
</symbol>

<!-- Twitter -->
<symbol id="twitter" viewBox="0 0 512 512">
    <path d="M389.2 48h70.6L305.6 224.2 487 464H345L233.7 318.6 106.5 464H35.8L200.7 275.5 26.8 48H172.4L272.9 180.9 389.2 48zM364.4 421.8h39.1L151.1 88h-42L364.4 421.8z"/>
</symbol>

<!-- Hamburger -->
<symbol id="hamBerger" viewBox="0 0 256 256">
    <path d="M228,128a12,12,0,0,1-12,12H40a12,12,0,0,1,0-24H216A12,12,0,0,1,228,128ZM40,76H216a12,12,0,0,0,0-24H40a12,12,0,0,0,0,24ZM216,180H40a12,12,0,0,0,0,24H216a12,12,0,0,0,0-24Z"/>
</symbol>

<!-- Cross -->
<symbol id="navCross" viewBox="0 0 256 256">
    <path d="M208.49,191.51a12,12,0,0,1-17,17L128,145,64.49,208.49a12,12,0,0,1-17-17L111,128,47.51,64.49a12,12,0,0,1,17-17L128,111l63.51-63.52a12,12,0,0,1,17,17L145,128Z"/>
</symbol>

<!-- filter icon -->
<symbol id="filter-icon" viewBox="0 0 256 256">
    <path d="M40,88H73a32,32,0,0,0,62,0h81a8,8,0,0,0,0-16H135a32,32,0,0,0-62,0H40a8,8,0,0,0,0,16Zm64-24A16,16,0,1,1,88,80,16,16,0,0,1,104,64ZM216,168H199a32,32,0,0,0-62,0H40a8,8,0,0,0,0,16h97a32,32,0,0,0,62,0h17a8,8,0,0,0,0-16Zm-48,24a16,16,0,1,1,16-16A16,16,0,0,1,168,192Z"/>
</symbol>

<symbol id="cross" viewBox="0 0 256 256">
    <path d="M205.66,194.34a8,8,0,0,1-11.32,11.32L128,139.31,61.66,205.66a8,8,0,0,1-11.32-11.32L116.69,128,50.34,61.66A8,8,0,0,1,61.66,50.34L128,116.69l66.34-66.35a8,8,0,0,1,11.32,11.32L139.31,128Z"/>
</symbol>

<symbol id="gear" viewBox="0 0 256 256">
    <path d="M228.25,63.07l-4.66-2.69a23.6,23.6,0,0,0,0-8.76l4.66-2.69a8,8,0,0,0-8-13.86l-4.67,2.7A23.92,23.92,0,0,0,208,33.38V28a8,8,0,0,0-16,0v5.38a23.92,23.92,0,0,0-7.58,4.39l-4.67-2.7a8,8,0,1,0-8,13.86l4.66,2.69a23.6,23.6,0,0,0,0,8.76l-4.66,2.69a8,8,0,0,0,4,14.93,7.92,7.92,0,0,0,4-1.07l4.67-2.7A23.92,23.92,0,0,0,192,78.62V84a8,8,0,0,0,16,0V78.62a23.92,23.92,0,0,0,7.58-4.39l4.67,2.7a7.92,7.92,0,0,0,4,1.07,8,8,0,0,0,4-14.93ZM192,56a8,8,0,1,1,8,8A8,8,0,0,1,192,56Zm29.35,48.11a8,8,0,0,0-6.57,9.21A88.85,88.85,0,0,1,216,128a87.62,87.62,0,0,1-22.24,58.41,79.66,79.66,0,0,0-36.06-28.75,48,48,0,1,0-59.4,0,79.66,79.66,0,0,0-36.06,28.75A88,88,0,0,1,128,40a88.76,88.76,0,0,1,14.68,1.22,8,8,0,0,0,2.64-15.78,103.92,103.92,0,1,0,85.24,85.24A8,8,0,0,0,221.35,104.11ZM96,120a32,32,0,1,1,32,32A32,32,0,0,1,96,120ZM74.08,197.5a64,64,0,0,1,107.84,0,87.83,87.83,0,0,1-107.84,0Z"/>
</symbol>

<symbol id="box" viewBox="0 0 256 256">
    <path d="M223.68,66.15,135.68,18a15.88,15.88,0,0,0-15.36,0l-88,48.17a16,16,0,0,0-8.32,14v95.64a16,16,0,0,0,8.32,14l88,48.17a15.88,15.88,0,0,0,15.36,0l88-48.17a16,16,0,0,0,8.32-14V80.18A16,16,0,0,0,223.68,66.15ZM128,32l80.34,44-29.77,16.3-80.35-44ZM128,120,47.66,76l33.9-18.56,80.34,44ZM40,90l80,43.78v85.79L40,175.82Zm176,85.78h0l-80,43.79V133.82l32-17.51V152a8,8,0,0,0,16,0V107.55L216,90v85.77Z"/>
</symbol>
<symbol id="half-star" viewBox="0 0 256 256">
    <path d="M234.5,114.38,229.27,119a8,8,0,1,1-10.52-12l5.23-4.57s0,0,0-.07l-8.67-.75a8,8,0,1,1,1.37-16l8.7.75a16,16,0,0,1,9.11,28.07Zm-60.7,43,2.86,12.41a8,8,0,1,0,15.59-3.6l-2.85-12.47,7.86-6.86a8,8,0,0,0-10.52-12.06l-7.86,6.87A16,16,0,0,0,173.8,157.4ZM136,51.15V184.81l.27.15,11.88,7.22a8,8,0,0,1-8.3,13.68L128,198.64l-51,31a16,16,0,0,1-23.84-17.34L66.61,153.8,21.5,114.38a16,16,0,0,1,9.11-28.07l59.46-5.14,23.21-55.36a15.95,15.95,0,0,1,29.44,0L166,81.17l10.74.93a8,8,0,0,1-1.38,16l-10.76-.93a16,16,0,0,1-13.35-9.75ZM119.73,185l.27-.15V51.15L104.8,87.37a16,16,0,0,1-13.35,9.75L32,102.25a.58.58,0,0,0,0,.1l45.13,39.34A16,16,0,0,1,82.2,157.4L68.68,215.94v0Zm79.91,13.25a8,8,0,0,0-15.59,3.61l3.3,14.14v0l-11.19-6.8a8,8,0,1,0-8.31,13.68l11.23,6.82a16,16,0,0,0,23.84-17.34Z"/>
</symbol>


<symbol id="track" viewBox="0 0 256 256">
  <path d="M247.42,117l-14-35A15.93,15.93,0,0,0,218.58,72H184V64a8,8,0,0,0-8-8H24A16,16,0,0,0,8,72V184a16,16,0,0,0,16,16H41a32,32,0,0,0,62,0h50a32,32,0,0,0,62,0h17a16,16,0,0,0,16-16V120A7.94,7.94,0,0,0,247.42,117ZM184,88h34.58l9.6,24H184ZM24,72H168v64H24ZM72,208a16,16,0,1,1,16-16A16,16,0,0,1,72,208Zm81-24H103a32,32,0,0,0-62,0H24V152H168v12.31A32.11,32.11,0,0,0,153,184Zm31,24a16,16,0,1,1,16-16A16,16,0,0,1,184,208Zm48-24H215a32.06,32.06,0,0,0-31-24V128h48Z"></path>
</symbol>


<symbol id="plus" viewBox="0 0 256 256">
  <path d="M224,128a8,8,0,0,1-8,8H136v80a8,8,0,0,1-16,0V136H40a8,8,0,0,1,0-16h80V40a8,8,0,0,1,16,0v80h80A8,8,0,0,1,224,128Z"></path>
</symbol>

<symbol id="minas" viewBox="0 0 256 256">
  <path d="M224,128a8,8,0,0,1-8,8H40a8,8,0,0,1,0-16H216A8,8,0,0,1,224,128Z"></path>
</symbol>
<symbol id="bin" viewBox="0 0 256 256">
  <path d="M216,48H176V40a24,24,0,0,0-24-24H104A24,24,0,0,0,80,40v8H40a8,8,0,0,0,0,16h8V208a16,16,0,0,0,16,16H192a16,16,0,0,0,16-16V64h8a8,8,0,0,0,0-16ZM112,168a8,8,0,0,1-16,0V104a8,8,0,0,1,16,0Zm48,0a8,8,0,0,1-16,0V104a8,8,0,0,1,16,0Zm0-120H96V40a8,8,0,0,1,8-8h48a8,8,0,0,1,8,8Z"></path>
</symbol>

<symbol id="cart-shop" viewBox="0 0 256 256">
  <path d="M222.14,58.87A8,8,0,0,0,216,56H54.68L49.79,29.14A16,16,0,0,0,34.05,16H16a8,8,0,0,0,0,16h18L59.56,172.29a24,24,0,0,0,5.33,11.27,28,28,0,1,0,44.4,8.44h45.42A27.75,27.75,0,0,0,152,204a28,28,0,1,0,28-28H83.17a8,8,0,0,1-7.87-6.57L72.13,152h116a24,24,0,0,0,23.61-19.71l12.16-66.86A8,8,0,0,0,222.14,58.87ZM96,204a12,12,0,1,1-12-12A12,12,0,0,1,96,204Zm96,0a12,12,0,1,1-12-12A12,12,0,0,1,192,204Zm4-74.57A8,8,0,0,1,188.1,136H69.22L57.59,72H206.41Z"></path>
</symbol>

<symbol id="gear-pass" viewBox="0 0 256 256">
  <path d="M128,80a48,48,0,1,0,48,48A48.05,48.05,0,0,0,128,80Zm0,80a32,32,0,1,1,32-32A32,32,0,0,1,128,160Zm109.94-52.79a8,8,0,0,0-3.89-5.4l-29.83-17-.12-33.62a8,8,0,0,0-2.83-6.08,111.91,111.91,0,0,0-36.72-20.67,8,8,0,0,0-6.46.59L128,41.85,97.88,25a8,8,0,0,0-6.47-.6A112.1,112.1,0,0,0,54.73,45.15a8,8,0,0,0-2.83,6.07l-.15,33.65-29.83,17a8,8,0,0,0-3.89,5.4,106.47,106.47,0,0,0,0,41.56,8,8,0,0,0,3.89,5.4l29.83,17,.12,33.62a8,8,0,0,0,2.83,6.08,111.91,111.91,0,0,0,36.72,20.67,8,8,0,0,0,6.46-.59L128,214.15,158.12,231a7.91,7.91,0,0,0,3.9,1,8.09,8.09,0,0,0,2.57-.42,112.1,112.1,0,0,0,36.68-20.73,8,8,0,0,0,2.83-6.07l.15-33.65,29.83-17a8,8,0,0,0,3.89-5.4A106.47,106.47,0,0,0,237.94,107.21Zm-15,34.91-28.57,16.25a8,8,0,0,0-3,3c-.58,1-1.19,2.06-1.81,3.06a7.94,7.94,0,0,0-1.22,4.21l-.15,32.25a95.89,95.89,0,0,1-25.37,14.3L134,199.13a8,8,0,0,0-3.91-1h-.19c-1.21,0-2.43,0-3.64,0a8.08,8.08,0,0,0-4.1,1l-28.84,16.1A96,96,0,0,1,67.88,201l-.11-32.2a8,8,0,0,0-1.22-4.22c-.62-1-1.23-2-1.8-3.06a8.09,8.09,0,0,0-3-3.06l-28.6-16.29a90.49,90.49,0,0,1,0-28.26L61.67,97.63a8,8,0,0,0,3-3c.58-1,1.19-2.06,1.81-3.06a7.94,7.94,0,0,0,1.22-4.21l.15-32.25a95.89,95.89,0,0,1,25.37-14.3L122,56.87a8,8,0,0,0,4.1,1c1.21,0,2.43,0,3.64,0a8.08,8.08,0,0,0,4.1-1l28.84-16.1A96,96,0,0,1,188.12,55l.11,32.2a8,8,0,0,0,1.22,4.22c.62,1,1.23,2,1.8,3.06a8.09,8.09,0,0,0,3,3.06l28.6,16.29A90.49,90.49,0,0,1,222.9,142.12Z"></path>
</symbol>

<symbol id="error" viewBox="0 0 256 256">
  <path d="M120,136V80a8,8,0,0,1,16,0v56a8,8,0,0,1-16,0ZM232,91.55v72.9a15.86,15.86,0,0,1-4.69,11.31l-51.55,51.55A15.86,15.86,0,0,1,164.45,232H91.55a15.86,15.86,0,0,1-11.31-4.69L28.69,175.76A15.86,15.86,0,0,1,24,164.45V91.55a15.86,15.86,0,0,1,4.69-11.31L80.24,28.69A15.86,15.86,0,0,1,91.55,24h72.9a15.86,15.86,0,0,1,11.31,4.69l51.55,51.55A15.86,15.86,0,0,1,232,91.55Zm-16,0L164.45,40H91.55L40,91.55v72.9L91.55,216h72.9L216,164.45ZM128,160a12,12,0,1,0,12,12A12,12,0,0,0,128,160Z"></path>
</symbol>


</svg>
